<mxfile host="app.diagrams.net" modified="2024-03-06T09:28:50.576Z" agent="Mozilla/5.0 (Macintosh; Intel Mac OS X 10_15_7) AppleWebKit/537.36 (KHTML, like Gecko) Chrome/122.0.0.0 Safari/537.36" etag="J6vh4H7Llrf8ZM4XUdhd" version="24.0.2" type="github">
  <diagram name="第 1 页" id="S5LFfYvW9hMaJ3Zk5og-">
    <mxGraphModel dx="681" dy="387" grid="1" gridSize="10" guides="1" tooltips="1" connect="1" arrows="1" fold="1" page="1" pageScale="1" pageWidth="827" pageHeight="1169" math="0" shadow="0">
      <root>
        <mxCell id="0" />
        <mxCell id="1" parent="0" />
        <mxCell id="ZJKlJX9DNZKPVY78UPLj-57" value="" style="group" vertex="1" connectable="0" parent="1">
          <mxGeometry x="320" y="100" width="700" height="570" as="geometry" />
        </mxCell>
        <mxCell id="ZJKlJX9DNZKPVY78UPLj-5" value="" style="rounded=0;whiteSpace=wrap;html=1;" vertex="1" parent="ZJKlJX9DNZKPVY78UPLj-57">
          <mxGeometry x="80" y="50" width="530" height="450" as="geometry" />
        </mxCell>
        <mxCell id="ZJKlJX9DNZKPVY78UPLj-1" value="Client" style="rounded=0;whiteSpace=wrap;html=1;" vertex="1" parent="ZJKlJX9DNZKPVY78UPLj-57">
          <mxGeometry x="230" width="110" height="30" as="geometry" />
        </mxCell>
        <mxCell id="ZJKlJX9DNZKPVY78UPLj-2" value="Dashboard" style="rounded=0;whiteSpace=wrap;html=1;" vertex="1" parent="ZJKlJX9DNZKPVY78UPLj-57">
          <mxGeometry x="374" width="110" height="30" as="geometry" />
        </mxCell>
        <mxCell id="ZJKlJX9DNZKPVY78UPLj-4" value="Transfer" style="rounded=0;whiteSpace=wrap;html=1;" vertex="1" parent="ZJKlJX9DNZKPVY78UPLj-57">
          <mxGeometry y="50" width="70" height="450" as="geometry" />
        </mxCell>
        <mxCell id="ZJKlJX9DNZKPVY78UPLj-6" value="Storage &amp;amp; Computing" style="rounded=0;whiteSpace=wrap;html=1;" vertex="1" parent="ZJKlJX9DNZKPVY78UPLj-57">
          <mxGeometry x="80" y="510" width="530" height="60" as="geometry" />
        </mxCell>
        <mxCell id="ZJKlJX9DNZKPVY78UPLj-7" value="Metadata Service" style="rounded=0;whiteSpace=wrap;html=1;" vertex="1" parent="ZJKlJX9DNZKPVY78UPLj-57">
          <mxGeometry x="620" y="50" width="80" height="210" as="geometry" />
        </mxCell>
        <mxCell id="ZJKlJX9DNZKPVY78UPLj-9" value="Local FileSytem" style="rounded=0;whiteSpace=wrap;html=1;" vertex="1" parent="ZJKlJX9DNZKPVY78UPLj-57">
          <mxGeometry x="620" y="290" width="80" height="210" as="geometry" />
        </mxCell>
        <mxCell id="ZJKlJX9DNZKPVY78UPLj-10" value="API Service" style="rounded=0;whiteSpace=wrap;html=1;" vertex="1" parent="ZJKlJX9DNZKPVY78UPLj-57">
          <mxGeometry x="260" y="80" width="170" height="30" as="geometry" />
        </mxCell>
        <mxCell id="ZJKlJX9DNZKPVY78UPLj-11" value="Tracking Manager" style="rounded=0;whiteSpace=wrap;html=1;" vertex="1" parent="ZJKlJX9DNZKPVY78UPLj-57">
          <mxGeometry x="100" y="80" width="120" height="170" as="geometry" />
        </mxCell>
        <mxCell id="ZJKlJX9DNZKPVY78UPLj-12" value="Federated Task Scheduler" style="rounded=0;whiteSpace=wrap;html=1;" vertex="1" parent="ZJKlJX9DNZKPVY78UPLj-57">
          <mxGeometry x="100" y="260" width="120" height="170" as="geometry" />
        </mxCell>
        <mxCell id="ZJKlJX9DNZKPVY78UPLj-13" value="Job Queue" style="rounded=0;whiteSpace=wrap;html=1;" vertex="1" parent="ZJKlJX9DNZKPVY78UPLj-57">
          <mxGeometry x="260" y="145" width="170" height="35" as="geometry" />
        </mxCell>
        <mxCell id="ZJKlJX9DNZKPVY78UPLj-14" value="DAg Scheduler" style="rounded=0;whiteSpace=wrap;html=1;" vertex="1" parent="ZJKlJX9DNZKPVY78UPLj-57">
          <mxGeometry x="260" y="210" width="170" height="35" as="geometry" />
        </mxCell>
        <mxCell id="ZJKlJX9DNZKPVY78UPLj-17" value="Task Scheduler" style="rounded=0;whiteSpace=wrap;html=1;" vertex="1" parent="ZJKlJX9DNZKPVY78UPLj-57">
          <mxGeometry x="260" y="270" width="170" height="35" as="geometry" />
        </mxCell>
        <mxCell id="ZJKlJX9DNZKPVY78UPLj-18" value="Executor" style="rounded=0;whiteSpace=wrap;html=1;verticalAlign=top;align=left;" vertex="1" parent="ZJKlJX9DNZKPVY78UPLj-57">
          <mxGeometry x="260" y="330" width="170" height="82.5" as="geometry" />
        </mxCell>
        <mxCell id="ZJKlJX9DNZKPVY78UPLj-20" value="Federated ML" style="rounded=0;whiteSpace=wrap;html=1;" vertex="1" parent="ZJKlJX9DNZKPVY78UPLj-57">
          <mxGeometry x="297" y="360" width="120" height="43" as="geometry" />
        </mxCell>
        <mxCell id="ZJKlJX9DNZKPVY78UPLj-21" value="Freamework" style="rounded=0;whiteSpace=wrap;html=1;" vertex="1" parent="ZJKlJX9DNZKPVY78UPLj-57">
          <mxGeometry x="280" y="430" width="300" height="60" as="geometry" />
        </mxCell>
        <mxCell id="ZJKlJX9DNZKPVY78UPLj-22" value="Mdoel Registry" style="rounded=0;whiteSpace=wrap;html=1;" vertex="1" parent="ZJKlJX9DNZKPVY78UPLj-57">
          <mxGeometry x="460" y="325" width="120" height="85" as="geometry" />
        </mxCell>
        <mxCell id="ZJKlJX9DNZKPVY78UPLj-24" value="CONTROLLER" style="rounded=0;whiteSpace=wrap;html=1;" vertex="1" parent="ZJKlJX9DNZKPVY78UPLj-57">
          <mxGeometry x="460" y="180" width="133" height="35" as="geometry" />
        </mxCell>
        <mxCell id="ZJKlJX9DNZKPVY78UPLj-25" value="DSL Parser" style="rounded=0;whiteSpace=wrap;html=1;" vertex="1" parent="ZJKlJX9DNZKPVY78UPLj-57">
          <mxGeometry x="460" y="110" width="133" height="35" as="geometry" />
        </mxCell>
        <mxCell id="ZJKlJX9DNZKPVY78UPLj-37" value="" style="endArrow=none;html=1;rounded=0;exitX=0.5;exitY=0;exitDx=0;exitDy=0;" edge="1" parent="ZJKlJX9DNZKPVY78UPLj-57" source="ZJKlJX9DNZKPVY78UPLj-10">
          <mxGeometry width="50" height="50" relative="1" as="geometry">
            <mxPoint x="240" y="80" as="sourcePoint" />
            <mxPoint x="290" y="30" as="targetPoint" />
          </mxGeometry>
        </mxCell>
        <mxCell id="ZJKlJX9DNZKPVY78UPLj-38" value="" style="endArrow=none;html=1;rounded=0;exitX=0.5;exitY=0;exitDx=0;exitDy=0;entryX=0.4;entryY=1.022;entryDx=0;entryDy=0;entryPerimeter=0;" edge="1" parent="ZJKlJX9DNZKPVY78UPLj-57" source="ZJKlJX9DNZKPVY78UPLj-10" target="ZJKlJX9DNZKPVY78UPLj-2">
          <mxGeometry width="50" height="50" relative="1" as="geometry">
            <mxPoint x="355" y="90" as="sourcePoint" />
            <mxPoint x="300" y="40" as="targetPoint" />
          </mxGeometry>
        </mxCell>
        <mxCell id="ZJKlJX9DNZKPVY78UPLj-39" value="" style="endArrow=none;html=1;rounded=0;exitX=0;exitY=0.75;exitDx=0;exitDy=0;entryX=1;entryY=0.5;entryDx=0;entryDy=0;" edge="1" parent="ZJKlJX9DNZKPVY78UPLj-57" source="ZJKlJX9DNZKPVY78UPLj-10" target="ZJKlJX9DNZKPVY78UPLj-11">
          <mxGeometry width="50" height="50" relative="1" as="geometry">
            <mxPoint x="355" y="90" as="sourcePoint" />
            <mxPoint x="300" y="40" as="targetPoint" />
          </mxGeometry>
        </mxCell>
        <mxCell id="ZJKlJX9DNZKPVY78UPLj-40" value="" style="endArrow=none;html=1;rounded=0;exitX=1;exitY=0.5;exitDx=0;exitDy=0;entryX=0;entryY=0.5;entryDx=0;entryDy=0;" edge="1" parent="ZJKlJX9DNZKPVY78UPLj-57" source="ZJKlJX9DNZKPVY78UPLj-11" target="ZJKlJX9DNZKPVY78UPLj-18">
          <mxGeometry width="50" height="50" relative="1" as="geometry">
            <mxPoint x="270" y="113" as="sourcePoint" />
            <mxPoint x="230" y="175" as="targetPoint" />
          </mxGeometry>
        </mxCell>
        <mxCell id="ZJKlJX9DNZKPVY78UPLj-42" value="" style="endArrow=none;html=1;rounded=0;exitX=1;exitY=0.676;exitDx=0;exitDy=0;exitPerimeter=0;" edge="1" parent="ZJKlJX9DNZKPVY78UPLj-57" source="ZJKlJX9DNZKPVY78UPLj-4">
          <mxGeometry width="50" height="50" relative="1" as="geometry">
            <mxPoint x="230" y="175" as="sourcePoint" />
            <mxPoint x="100" y="354" as="targetPoint" />
          </mxGeometry>
        </mxCell>
        <mxCell id="ZJKlJX9DNZKPVY78UPLj-43" value="" style="endArrow=none;html=1;rounded=0;exitX=1;exitY=0.908;exitDx=0;exitDy=0;entryX=0;entryY=0.5;entryDx=0;entryDy=0;exitPerimeter=0;" edge="1" parent="ZJKlJX9DNZKPVY78UPLj-57" source="ZJKlJX9DNZKPVY78UPLj-4" target="ZJKlJX9DNZKPVY78UPLj-21">
          <mxGeometry width="50" height="50" relative="1" as="geometry">
            <mxPoint x="230" y="175" as="sourcePoint" />
            <mxPoint x="270" y="381" as="targetPoint" />
          </mxGeometry>
        </mxCell>
        <mxCell id="ZJKlJX9DNZKPVY78UPLj-44" value="" style="endArrow=none;html=1;rounded=0;exitX=0;exitY=0.5;exitDx=0;exitDy=0;entryX=1;entryY=0.5;entryDx=0;entryDy=0;" edge="1" parent="ZJKlJX9DNZKPVY78UPLj-57" source="ZJKlJX9DNZKPVY78UPLj-17" target="ZJKlJX9DNZKPVY78UPLj-12">
          <mxGeometry width="50" height="50" relative="1" as="geometry">
            <mxPoint x="270" y="113" as="sourcePoint" />
            <mxPoint x="230" y="175" as="targetPoint" />
          </mxGeometry>
        </mxCell>
        <mxCell id="ZJKlJX9DNZKPVY78UPLj-45" value="" style="endArrow=none;html=1;rounded=0;exitX=0;exitY=0.5;exitDx=0;exitDy=0;" edge="1" parent="ZJKlJX9DNZKPVY78UPLj-57" source="ZJKlJX9DNZKPVY78UPLj-18">
          <mxGeometry width="50" height="50" relative="1" as="geometry">
            <mxPoint x="270" y="298" as="sourcePoint" />
            <mxPoint x="220" y="340" as="targetPoint" />
          </mxGeometry>
        </mxCell>
        <mxCell id="ZJKlJX9DNZKPVY78UPLj-48" value="" style="endArrow=none;html=1;rounded=0;exitX=0.5;exitY=1;exitDx=0;exitDy=0;" edge="1" parent="ZJKlJX9DNZKPVY78UPLj-57" source="ZJKlJX9DNZKPVY78UPLj-10" target="ZJKlJX9DNZKPVY78UPLj-13">
          <mxGeometry width="50" height="50" relative="1" as="geometry">
            <mxPoint x="270" y="113" as="sourcePoint" />
            <mxPoint x="230" y="175" as="targetPoint" />
          </mxGeometry>
        </mxCell>
        <mxCell id="ZJKlJX9DNZKPVY78UPLj-49" value="" style="endArrow=none;html=1;rounded=0;exitX=0.5;exitY=1;exitDx=0;exitDy=0;entryX=0.5;entryY=0;entryDx=0;entryDy=0;" edge="1" parent="ZJKlJX9DNZKPVY78UPLj-57" source="ZJKlJX9DNZKPVY78UPLj-13" target="ZJKlJX9DNZKPVY78UPLj-14">
          <mxGeometry width="50" height="50" relative="1" as="geometry">
            <mxPoint x="355" y="120" as="sourcePoint" />
            <mxPoint x="355" y="135" as="targetPoint" />
          </mxGeometry>
        </mxCell>
        <mxCell id="ZJKlJX9DNZKPVY78UPLj-50" value="" style="endArrow=none;html=1;rounded=0;exitX=0.5;exitY=1;exitDx=0;exitDy=0;entryX=0.5;entryY=0;entryDx=0;entryDy=0;" edge="1" parent="ZJKlJX9DNZKPVY78UPLj-57" source="ZJKlJX9DNZKPVY78UPLj-14" target="ZJKlJX9DNZKPVY78UPLj-17">
          <mxGeometry width="50" height="50" relative="1" as="geometry">
            <mxPoint x="355" y="190" as="sourcePoint" />
            <mxPoint x="355" y="220" as="targetPoint" />
          </mxGeometry>
        </mxCell>
        <mxCell id="ZJKlJX9DNZKPVY78UPLj-51" value="" style="endArrow=none;html=1;rounded=0;exitX=0.5;exitY=0;exitDx=0;exitDy=0;entryX=0;entryY=0.635;entryDx=0;entryDy=0;entryPerimeter=0;" edge="1" parent="ZJKlJX9DNZKPVY78UPLj-57" target="ZJKlJX9DNZKPVY78UPLj-22">
          <mxGeometry width="50" height="50" relative="1" as="geometry">
            <mxPoint x="430" y="379" as="sourcePoint" />
            <mxPoint x="503" y="330" as="targetPoint" />
          </mxGeometry>
        </mxCell>
        <mxCell id="ZJKlJX9DNZKPVY78UPLj-52" value="" style="endArrow=none;html=1;rounded=0;exitX=0.5;exitY=0;exitDx=0;exitDy=0;entryX=0.603;entryY=0.975;entryDx=0;entryDy=0;entryPerimeter=0;" edge="1" parent="ZJKlJX9DNZKPVY78UPLj-57" source="ZJKlJX9DNZKPVY78UPLj-7" target="ZJKlJX9DNZKPVY78UPLj-1">
          <mxGeometry width="50" height="50" relative="1" as="geometry">
            <mxPoint x="355" y="90" as="sourcePoint" />
            <mxPoint x="300" y="40" as="targetPoint" />
          </mxGeometry>
        </mxCell>
        <mxCell id="ZJKlJX9DNZKPVY78UPLj-53" value="" style="endArrow=none;html=1;rounded=0;exitX=0.5;exitY=0;exitDx=0;exitDy=0;entryX=0.419;entryY=1.017;entryDx=0;entryDy=0;entryPerimeter=0;" edge="1" parent="ZJKlJX9DNZKPVY78UPLj-57" source="ZJKlJX9DNZKPVY78UPLj-7" target="ZJKlJX9DNZKPVY78UPLj-2">
          <mxGeometry width="50" height="50" relative="1" as="geometry">
            <mxPoint x="355" y="90" as="sourcePoint" />
            <mxPoint x="428" y="41" as="targetPoint" />
          </mxGeometry>
        </mxCell>
        <mxCell id="ZJKlJX9DNZKPVY78UPLj-54" value="" style="endArrow=none;html=1;rounded=0;exitX=0.5;exitY=0;exitDx=0;exitDy=0;" edge="1" parent="ZJKlJX9DNZKPVY78UPLj-57">
          <mxGeometry width="50" height="50" relative="1" as="geometry">
            <mxPoint x="430" y="159" as="sourcePoint" />
            <mxPoint x="620" y="160" as="targetPoint" />
          </mxGeometry>
        </mxCell>
        <mxCell id="ZJKlJX9DNZKPVY78UPLj-55" value="" style="endArrow=none;html=1;rounded=0;exitX=0;exitY=0.5;exitDx=0;exitDy=0;entryX=1;entryY=0.5;entryDx=0;entryDy=0;" edge="1" parent="ZJKlJX9DNZKPVY78UPLj-57" source="ZJKlJX9DNZKPVY78UPLj-24" target="ZJKlJX9DNZKPVY78UPLj-14">
          <mxGeometry width="50" height="50" relative="1" as="geometry">
            <mxPoint x="355" y="190" as="sourcePoint" />
            <mxPoint x="355" y="220" as="targetPoint" />
          </mxGeometry>
        </mxCell>
        <mxCell id="ZJKlJX9DNZKPVY78UPLj-56" value="" style="endArrow=none;html=1;rounded=0;exitX=0.017;exitY=0.368;exitDx=0;exitDy=0;entryX=1;entryY=0.5;entryDx=0;entryDy=0;exitPerimeter=0;" edge="1" parent="ZJKlJX9DNZKPVY78UPLj-57" source="ZJKlJX9DNZKPVY78UPLj-9" target="ZJKlJX9DNZKPVY78UPLj-22">
          <mxGeometry width="50" height="50" relative="1" as="geometry">
            <mxPoint x="470" y="208" as="sourcePoint" />
            <mxPoint x="440" y="238" as="targetPoint" />
          </mxGeometry>
        </mxCell>
        <mxCell id="ZJKlJX9DNZKPVY78UPLj-58" value="" style="endArrow=none;html=1;rounded=0;exitX=0.623;exitY=0;exitDx=0;exitDy=0;exitPerimeter=0;entryX=0.434;entryY=1.008;entryDx=0;entryDy=0;entryPerimeter=0;" edge="1" parent="ZJKlJX9DNZKPVY78UPLj-57" source="ZJKlJX9DNZKPVY78UPLj-6" target="ZJKlJX9DNZKPVY78UPLj-21">
          <mxGeometry width="50" height="50" relative="1" as="geometry">
            <mxPoint x="367" y="540" as="sourcePoint" />
            <mxPoint x="417" y="490" as="targetPoint" />
          </mxGeometry>
        </mxCell>
      </root>
    </mxGraphModel>
  </diagram>
</mxfile>
